<svg xmlns="http://www.w3.org/2000/svg" xmlns:xlink="http://www.w3.org/1999/xlink" version="1.1"
    x="0px" y="0px" viewBox="0 0 50 50" enable-background="new 0 0 50 50" xml:space="preserve">
    <g>
        <g>
            <path fill="#ffffff" d="M25.9,40.6c-9.1,0-16.5-7.4-16.5-16.5c0-6,3.3-11.5,8.5-14.5c0.5-0.3,1.1-0.2,1.5,0.2    c0.4,0.4,0.5,1,0.2,1.5C18.6,13.4,18,15.7,18,18c0,7.7,6.3,14,14,14c2.4,0,4.7-0.6,6.7-1.7c0.5-0.3,1.1-0.2,1.5,0.2    c0.4,0.4,0.5,1,0.2,1.5C37.5,37.3,32,40.6,25.9,40.6z M15.9,14.3c-2.5,2.6-3.9,6-3.9,9.7c0,7.7,6.3,14,14,14    c3.7,0,7.1-1.4,9.7-3.9c-1.2,0.3-2.5,0.4-3.7,0.4c-9.1,0-16.5-7.4-16.5-16.5C15.5,16.8,15.6,15.5,15.9,14.3z"/>
        </g>
        <g>
            <path fill="#ffffff" d="M28.9,26.2c-0.2,0.4-0.5,0.4-0.6,0s-0.7-1-1.1-1.1c-0.4-0.2-0.4-0.5,0-0.6c0.4-0.2,1-0.7,1.1-1.1    s0.5-0.4,0.6,0s0.7,1,1.1,1.1c0.4,0.2,0.4,0.5,0,0.6C29.6,25.3,29,25.8,28.9,26.2z"/>
        </g>
        <g>
            <path fill="#ffffff" d="M36.7,22.7c-0.2,0.4-0.5,0.4-0.6,0c-0.2-0.4-0.7-1-1.1-1.1s-0.4-0.5,0-0.6s1-0.7,1.1-1.1    c0.2-0.4,0.5-0.4,0.6,0c0.2,0.4,0.7,1,1.1,1.1s0.4,0.5,0,0.6S36.8,22.2,36.7,22.7z"/>
        </g>
        <g>
            <path fill="#ffffff" d="M30.7,17c-0.2,0.4-0.5,0.4-0.6,0s-0.7-1-1.1-1.1s-0.4-0.5,0-0.6s1-0.7,1.1-1.1s0.5-0.4,0.6,0    s0.7,1,1.1,1.1c0.4,0.2,0.4,0.5,0,0.6C31.3,16.1,30.8,16.6,30.7,17z"/>
        </g>
    </g>
</svg>